<?xml version="1.0" encoding="UTF-8" standalone="no"?><!DOCTYPE svg PUBLIC "-//W3C//DTD SVG 1.1//EN" "http://www.w3.org/Graphics/SVG/1.1/DTD/svg11.dtd"><svg width="100%" height="100%" viewBox="0 0 500 398" version="1.1" xmlns="http://www.w3.org/2000/svg" xmlnsXlink="http://www.w3.org/1999/xlink" xmlSpace="preserve" xmlnsserif="http://www.serif.com/" style="fill-rule:evenodd;clip-rule:evenodd;stroke-linejoin:round;stroke-miterlimit:1.41421;"><path d="M498.051,113.876c-1.981,-2.788 -5.187,-4.446 -8.615,-4.446l-385.482,0l-28.49,-101.715c-1.272,-4.563 -5.434,-7.715 -10.172,-7.715l-54.729,0c-5.831,0 -10.563,4.731 -10.563,10.561c0,5.829 4.732,10.56 10.563,10.56l46.722,0l66.559,237.652c-24.422,0.386 -44.181,20.34 -44.181,44.846c0,24.749 20.139,44.883 44.895,44.883l13.536,0c-1.748,4.129 -2.714,8.665 -2.714,13.423c0,19.046 15.501,34.544 34.547,34.544c19.051,0 34.553,-15.498 34.553,-34.544c0,-4.758 -0.972,-9.294 -2.715,-13.423l111.855,0c-2.187,4.531 -3.449,9.589 -3.449,14.954c0,19.046 15.502,34.544 34.547,34.544c19.046,0 34.548,-15.498 34.548,-34.544c0,-5.359 -1.262,-10.418 -3.449,-14.954l18.554,0c5.831,0 10.564,-4.731 10.564,-10.561c0,-5.829 -4.733,-10.56 -10.564,-10.56l-269.819,0c-13.104,0 -23.767,-10.661 -23.767,-23.762c0,-13.1 10.663,-23.761 23.767,-23.761l312.891,0c5.293,0 9.634,-3.908 10.405,-8.982l51.56,-147.401c1.13,-3.231 0.623,-6.806 -1.357,-9.599Zm-153.378,262.94c-7.432,0 -13.479,-6.045 -13.479,-13.481c0,-7.435 6.047,-13.48 13.479,-13.48c7.431,0 13.478,6.045 13.478,13.48c0,7.436 -6.047,13.481 -13.478,13.481Zm-161.104,-14.764c0,7.429 -6.052,13.48 -13.482,13.48c-7.43,0 -13.476,-6.045 -13.476,-13.48c0,-7.435 6.046,-13.481 13.476,-13.481c7.43,0 13.482,6.051 13.482,13.481Zm282.552,-207.987l-72.668,0l3.332,-23.752l77.541,0l-8.205,23.752Zm-17.956,51.996l-61.772,0l4.369,-30.813l68.16,0l-10.757,30.813Zm-18.342,52.639l-51.132,0l4.516,-31.455l57.743,0l-11.127,31.455Zm-126.229,0l0,-31.455l58.409,0l-4.489,31.455l-53.92,0Zm-75.742,0l-4.489,-31.455l58.408,0l0,31.455l-53.919,0Zm-82.248,0l-8.89,-31.455l65.453,0l4.508,31.455l-61.071,0Zm157.348,-104.635l0,-23.752l72.529,0l-3.341,23.752l-69.188,0Zm66.111,21.183l-4.386,30.813l-61.725,0l0,-30.813l66.111,0Zm-86.65,-21.183l-69.187,0l-3.342,-23.752l72.524,0l0,23.752l0.005,0Zm0,21.183l0,30.813l-61.724,0l-4.386,-30.813l66.11,0Zm-82.798,30.813l-68.375,0l-8.647,-30.813l72.635,0l4.387,30.813Zm-11.043,-75.748l3.341,23.752l-75.571,0l-6.586,-23.752l78.816,0Z" style="fill:currentColor;fill-rule:nonzero;"/></svg>
